HIERARCHY
ROOT Hips
{
 OFFSET 0.000000 0.000000 0.000000
 CHANNELS 6 Xposition Yposition Zposition Yrotation Xrotation Zrotation
 JOINT Chest
 {
  OFFSET 0.000000 9.303000 0.001900
  CHANNELS 3 Yrotation Xrotation Zrotation
  JOINT Chest2
  {
   OFFSET 0.000000 9.301100 -0.003900
   CHANNELS 3 Yrotation Xrotation Zrotation
   JOINT Chest3
   {
    OFFSET 0.000000 9.262800 0.000000
    CHANNELS 3 Yrotation Xrotation Zrotation
    JOINT Chest4
    {
     OFFSET 0.000000 9.253300 0.000000
     CHANNELS 3 Yrotation Xrotation Zrotation
     JOINT Neck
     {
      OFFSET 0.000000 14.010300 0.000000
      CHANNELS 3 Yrotation Xrotation Zrotation
      JOINT Head
      {
       OFFSET 0.000000 8.657600 -0.008300
       CHANNELS 3 Yrotation Xrotation Zrotation
       End Site
       {
        OFFSET 0.000000 16.540200 -0.004400
       }
      }
     }
     JOINT RightCollar
     {
      OFFSET -2.834100 9.267700 0.000000
      CHANNELS 3 Yrotation Xrotation Zrotation
      JOINT RightShoulder
      {
       OFFSET -13.135200 0.000000 0.000000
       CHANNELS 3 Yrotation Xrotation Zrotation
       JOINT RightElbow
       {
        OFFSET 0.000000 -28.893500 0.000000
        CHANNELS 3 Yrotation Xrotation Zrotation
        JOINT RightWrist
        {
         OFFSET 0.000000 -23.344000 0.000000
         CHANNELS 3 Yrotation Xrotation Zrotation
         End Site
         {
          OFFSET 0.000000 -17.223000 0.000000
         }
        }
       }
      }
     }
     JOINT LeftCollar
     {
      OFFSET 2.834100 9.267700 0.000000
      CHANNELS 3 Yrotation Xrotation Zrotation
      JOINT LeftShoulder
      {
       OFFSET 13.135200 0.000000 0.000000
       CHANNELS 3 Yrotation Xrotation Zrotation
       JOINT LeftElbow
       {
        OFFSET 0.000000 -28.893500 0.000000
        CHANNELS 3 Yrotation Xrotation Zrotation
        JOINT LeftWrist
        {
         OFFSET 0.000000 -23.344000 0.000000
         CHANNELS 3 Yrotation Xrotation Zrotation
         End Site
         {
          OFFSET 0.000000 -17.223000 0.000000
         }
        }
       }
      }
     }
    }
   }
  }
 }
 JOINT RightHip
 {
  OFFSET -7.547200 -0.009500 -0.001000
  CHANNELS 3 Yrotation Xrotation Zrotation
  JOINT RightKnee
  {
   OFFSET 0.000000 -39.762800 0.000900
   CHANNELS 3 Yrotation Xrotation Zrotation
   JOINT RightAnkle
   {
    OFFSET 0.000000 -38.588200 0.001600
    CHANNELS 3 Yrotation Xrotation Zrotation
    JOINT RightToe
    {
     OFFSET 0.000000 -4.693300 10.419700
     CHANNELS 3 Yrotation Xrotation Zrotation
     End Site
     {
      OFFSET 0.000000 -1.379900 5.669300
     }
    }
   }
  }
 }
 JOINT LeftHip
 {
  OFFSET 7.547200 -0.009500 -0.001000
  CHANNELS 3 Yrotation Xrotation Zrotation
  JOINT LeftKnee
  {
   OFFSET 0.000000 -39.762800 0.000900
   CHANNELS 3 Yrotation Xrotation Zrotation
   JOINT LeftAnkle
   {
    OFFSET 0.000000 -38.588200 0.001600
    CHANNELS 3 Yrotation Xrotation Zrotation
    JOINT LeftToe
    {
     OFFSET 0.000000 -4.693300 10.419700
     CHANNELS 3 Yrotation Xrotation Zrotation
     End Site
     {
      OFFSET 0.000000 -1.379900 5.669300
     }
    }
   }
  }
 }
}
MOTION
Frames: 7
Frame Time: 0.008333
0.000000 82.880600 0.000000 0.000000 -5.767877 0.000000 0.000000 11.653817 0.000000 0.000000 -5.885947 0.000000 0.000000 -0.000000 0.000000 0.000000 -0.000000 0.000000 0.000000 12.528835 0.000000 0.000000 0.711642 0.000000 0.000000 -0.000000 0.000000 0.000000 0.000000 -90.000000 0.000000 -2.309062 0.000000 0.000000 2.309062 0.000000 0.000000 -0.000000 0.000000 0.000000 -0.000000 90.000000 0.000000 -2.309062 0.000000 0.000000 2.309062 0.000000 0.000000 8.520406 0.000000 0.000000 1.905762 0.000000 -0.000000 -4.658285 0.000000 0.000000 -0.000000 0.000000 0.000000 8.520406 0.000000 0.000000 1.905762 0.000000 -0.000000 -4.658285 0.000000 0.000000 -0.000000 0.000000
1.431052 45.892953 10.421098 165.417268 -13.178303 0.271394 2.784845 8.960354 0.021945 0.187947 0.568897 0.017142 0.229481 0.803031 -0.001240 2.578271 8.366516 0.270076 -2.867784 18.480053 1.644786 -3.411357 -6.147813 2.400431 4.409820 2.485020 -4.127999 -0.381582 -8.903703 -1.781283 9.725504 -69.791714 -4.078613 -5.930908 -4.509868 -25.068392 -10.157789 1.162168 -3.134287 10.429381 -6.867609 4.489790 11.121485 -65.964745 -25.984981 0.184834 3.062376 11.008174 -17.385053 -74.761166 11.102393 -137.447249 83.728042 -139.268829 -10.628633 -10.071803 -0.958089 -0.027156 -0.179745 0.099207 -1.596364 -73.671958 22.587200 99.066654 78.001236 97.251814 -11.646143 -9.495925 1.514628 0.188800 0.416263 0.072035
1.424518 45.885736 10.411846 165.428698 -13.238744 0.307018 2.731346 8.954319 -0.030478 0.161062 0.517277 0.008687 0.253093 0.849144 0.007895 2.550367 8.331448 0.270902 -2.924608 18.423362 1.705514 -3.500198 -6.229473 2.482024 4.371453 2.517159 -4.142671 -0.399856 -8.829440 -1.653457 9.343114 -69.713430 -3.705479 -5.956974 -4.461285 -25.028232 -10.139758 1.244730 -3.115987 10.334837 -6.601404 4.374342 10.804544 -65.893171 -25.846751 0.124392 3.191311 10.824774 -17.062729 -74.732127 10.865856 -137.062110 83.681129 -138.889158 -10.966899 -10.068956 -0.864246 -0.112130 -0.177522 0.065878 -1.510870 -73.621367 22.466423 99.152290 77.999557 97.352569 -11.645287 -9.488959 1.491071 0.200043 0.401829 0.081548
1.424317 45.875742 10.409978 165.415089 -13.268894 0.297495 2.708847 8.911357 -0.032238 0.150078 0.497705 0.006045 0.260579 0.863418 0.011335 2.564334 8.364712 0.278806 -3.022201 18.307697 1.767037 -3.588216 -6.301209 2.560978 4.295712 2.485869 -4.159753 -0.419056 -8.761580 -1.540512 8.959658 -69.641370 -3.319174 -5.986913 -4.426592 -24.972736 -10.161400 1.263016 -3.087243 10.258531 -6.347784 4.255162 10.531887 -65.829864 -25.747995 0.084527 3.312382 10.632050 -16.913298 -74.720046 10.801651 -136.982647 83.652203 -138.849027 -10.893613 -10.052321 -0.820479 -0.106890 -0.180963 0.061056 -1.608762 -73.605194 22.558765 99.267119 77.988409 97.480292 -11.645247 -9.483512 1.472866 0.206342 0.391619 0.081210
1.428027 45.865692 10.404999 165.372239 -13.329870 0.276118 2.736502 8.933504 -0.005649 0.129030 0.456074 0.001426 0.258481 0.859936 0.011909 2.578538 8.402762 0.287488 -3.118412 18.196549 1.826386 -3.675670 -6.361333 2.637593 4.223155 2.452429 -4.173096 -0.440311 -8.697040 -1.440798 8.609363 -69.574690 -2.948428 -6.016585 -4.400151 -24.907191 -10.175298 1.281758 -3.055784 10.190247 -6.108820 4.129031 10.305527 -65.773325 -25.689109 0.069653 3.421338 10.435825 -16.838541 -74.665204 10.807414 -137.155472 83.649885 -139.082008 -10.665804 -10.042223 -0.796793 -0.101861 -0.180165 0.055204 -1.694599 -73.549908 22.681935 99.368202 77.984183 97.609100 -11.657315 -9.518415 1.437077 0.223694 0.410675 0.092647
1.431165 45.855181 10.399692 165.345173 -13.398287 0.256825 2.747323 8.961692 0.014885 0.128191 0.454475 0.002299 0.236237 0.813774 0.008528 2.523562 8.312969 0.285451 -3.145429 18.221776 1.876338 -3.763079 -6.410637 2.711539 4.221442 2.547793 -4.173498 -0.462501 -8.632443 -1.350526 8.304765 -69.517254 -2.612949 -6.033598 -4.376653 -24.830453 -10.111638 1.429354 -3.042378 10.126821 -5.881021 3.995102 10.133281 -65.722190 -25.680939 0.082236 3.507098 10.252211 -16.582724 -74.616865 10.672662 -137.079037 83.618123 -139.027120 -10.568880 -10.019619 -0.757344 -0.077097 -0.187923 0.062557 -1.795537 -73.488057 22.808529 99.453206 77.979793 97.692340 -11.645900 -9.526300 1.437745 0.211188 0.413143 0.084676
1.439880 45.843562 10.400116 165.282502 -13.447045 0.207313 2.748377 8.863217 0.056677 0.147273 0.491801 0.006933 0.265315 0.876400 0.015121 2.481841 8.225371 0.283601 -3.202007 18.207336 1.924932 -3.849904 -6.449873 2.782100 4.185711 2.596967 -4.176548 -0.478454 -8.565873 -1.268633 8.049286 -69.474312 -2.325490 -6.032882 -4.352546 -24.747977 -10.072080 1.529073 -3.015595 10.068144 -5.661514 3.857463 10.026316 -65.674189 -25.740290 0.109688 3.567835 10.091942 -16.536245 -74.570261 10.730799 -137.366989 83.622638 -139.379956 -10.131880 -9.998196 -0.759742 -0.007224 -0.191877 0.082045 -2.073375 -73.440167 23.144958 99.609419 77.975859 97.838860 -11.625206 -9.552912 1.421247 0.201292 0.427698 0.081410
